# xmcd
#
# Track frame offsets:
#	150
#	13853
#	27269
#	43374
#	58198
#	72742
#	85065
#	97848
#	112491
#	126991
#	138353
#	151606
#	166479
#	181379
#
# Disc length: 2632 seconds
#
# Revision: 0
# Processed by: cddbd v1.5.2PL0 Copyright (c) Steve Scherf et al.
# Submitted via: EasyCDDAExtractor 11.9.9.666
#
DISCID=c80a460e
DTITLE=Banda Alegria - Eu Te Amo
DYEAR=1900
DGENRE=Other
TTITLE0=Grito de alegria
TTITLE1=Mensagem pra mim
TTITLE2=Manchas de batom
TTITLE3=Eu te amo
TTITLE4=Nossas diferenças
TTITLE5=Vem pra mim
TTITLE6=Minha metade
TTITLE7=24 horas
TTITLE8=Perdido na noite
TTITLE9=Da boca pra fora
TTITLE10=O bicho vai pegar
TTITLE11=Meu mel
TTITLE12=Conta pra ela
TTITLE13=Tarde demais
EXTD=
EXTT0=
EXTT1=
EXTT2=
EXTT3=
EXTT4=
EXTT5=
EXTT6=
EXTT7=
EXTT8=
EXTT9=
EXTT10=
EXTT11=
EXTT12=
EXTT13=
PLAYORDER=
